<svg width="42" height="42" viewBox="0 0 42 42" fill="none" xmlns="http://www.w3.org/2000/svg">
<path d="M13.6937 21L20.475 27.825C20.7958 28.1458 20.9638 28.5472 20.979 29.029C20.9941 29.5108 20.8261 29.9262 20.475 30.275C20.1541 30.5958 19.7458 30.7562 19.25 30.7562C18.7541 30.7562 18.3458 30.5958 18.025 30.275L9.97497 22.225C9.79997 22.05 9.67572 21.8604 9.60222 21.6562C9.52872 21.4521 9.49314 21.2333 9.49547 21C9.4978 20.7667 9.53455 20.5479 9.60572 20.3437C9.67689 20.1396 9.80055 19.95 9.97672 19.775L18.0267 11.725C18.3476 11.4042 18.7489 11.2367 19.2307 11.2227C19.7126 11.2087 20.1279 11.3762 20.4767 11.725C20.7976 12.0458 20.958 12.4542 20.958 12.95C20.958 13.4458 20.7976 13.8542 20.4767 14.175L13.6937 21ZM25.2437 21L32.025 27.825C32.3458 28.1458 32.5138 28.5472 32.529 29.029C32.5441 29.5108 32.3761 29.9262 32.025 30.275C31.7041 30.5958 31.2958 30.7562 30.8 30.7562C30.3041 30.7562 29.8958 30.5958 29.575 30.275L21.525 22.225C21.35 22.05 21.2257 21.8604 21.1522 21.6562C21.0787 21.4521 21.0431 21.2333 21.0455 21C21.0478 20.7667 21.0846 20.5479 21.1557 20.3437C21.2269 20.1396 21.3506 19.95 21.5267 19.775L29.5767 11.725C29.8976 11.4042 30.2989 11.2367 30.7807 11.2227C31.2626 11.2087 31.6779 11.3762 32.0267 11.725C32.3476 12.0458 32.508 12.4542 32.508 12.95C32.508 13.4458 32.3476 13.8542 32.0267 14.175L25.2437 21Z" fill="#0152A4"/>
</svg>
