<svg width="54" height="54" viewBox="0 0 54 54" fill="none" xmlns="http://www.w3.org/2000/svg">
<path d="M10.395 40.77C12.69 39.015 15.255 37.6317 18.09 36.6201C20.925 35.6085 23.895 35.1018 27 35.1C30.105 35.0982 33.075 35.6049 35.91 36.6201C38.745 37.6353 41.31 39.0186 43.605 40.77C45.18 38.925 46.4067 36.8325 47.2851 34.4925C48.1635 32.1525 48.6018 29.655 48.6 27C48.6 21.015 46.4967 15.9183 42.2901 11.7099C38.0835 7.50149 32.9868 5.3982 27 5.4C21.0132 5.4018 15.9165 7.50599 11.7099 11.7126C7.5033 15.9192 5.4 21.015 5.4 27C5.4 29.655 5.8392 32.1525 6.7176 34.4925C7.596 36.8325 8.8218 38.925 10.395 40.77ZM27 29.7C24.345 29.7 22.1058 28.7892 20.2824 26.9676C18.459 25.146 17.5482 22.9068 17.55 20.25C17.5518 17.5932 18.4635 15.354 20.2851 13.5324C22.1067 11.7108 24.345 10.8 27 10.8C29.655 10.8 31.8942 11.7117 33.7176 13.5351C35.541 15.3585 36.4518 17.5968 36.45 20.25C36.4482 22.9032 35.5374 25.1424 33.7176 26.9676C31.8978 28.7928 29.6586 29.7036 27 29.7ZM27 54C23.265 54 19.755 53.2908 16.47 51.8724C13.185 50.454 10.3275 48.5307 7.8975 46.1025C5.4675 43.6743 3.5442 40.8168 2.1276 37.53C0.711003 34.2432 0.00180342 30.7332 3.41772e-06 27C-0.00179658 23.2668 0.707403 19.7568 2.1276 16.47C3.5478 13.1832 5.4711 10.3257 7.8975 7.89749C10.3239 5.4693 13.1814 3.546 16.47 2.1276C19.7586 0.7092 23.2686 0 27 0C30.7314 0 34.2414 0.7092 37.53 2.1276C40.8186 3.546 43.6761 5.4693 46.1025 7.89749C48.5289 10.3257 50.4531 13.1832 51.8751 16.47C53.2971 19.7568 54.0054 23.2668 54 27C53.9946 30.7332 53.2854 34.2432 51.8724 37.53C50.4594 40.8168 48.5361 43.6743 46.1025 46.1025C43.6689 48.5307 40.8114 50.4549 37.53 51.8751C34.2486 53.2953 30.7386 54.0036 27 54Z" fill="#0152A4"/>
</svg>
