<svg width="30" height="32" viewBox="0 0 30 32" fill="none" xmlns="http://www.w3.org/2000/svg">
<path d="M7.5 28.6316V29.4737C7.5 30.1754 7.22688 30.7722 6.68063 31.264C6.13438 31.7558 5.47 32.0011 4.6875 32C3.905 31.9989 3.24125 31.7535 2.69625 31.264C2.15125 30.7745 1.8775 30.1777 1.875 29.4737V26.8632C1.3125 26.3018 0.859375 25.6775 0.515625 24.9903C0.171875 24.3032 0 23.552 0 22.7368V6.73684C0 4.40702 1.20313 2.70203 3.60938 1.62189C6.01563 0.541754 9.8125 0.00112281 15 0C20.375 0 24.2188 0.519298 26.5312 1.55789C28.8438 2.59649 30 4.32281 30 6.73684V22.7368C30 23.5509 29.8281 24.302 29.4844 24.9903C29.1406 25.6786 28.6875 26.3029 28.125 26.8632V29.4737C28.125 30.1754 27.8519 30.7722 27.3056 31.264C26.7594 31.7558 26.095 32.0011 25.3125 32C24.53 31.9989 23.8662 31.7535 23.3212 31.264C22.7762 30.7745 22.5025 30.1777 22.5 29.4737V28.6316H7.5ZM3.75 13.4737H26.25V8.42105H3.75V13.4737ZM8.4375 23.5789C9.21875 23.5789 9.88312 23.3336 10.4306 22.8429C10.9781 22.3523 11.2513 21.7555 11.25 21.0526C11.2487 20.3498 10.9756 19.7535 10.4306 19.264C9.88562 18.7745 9.22125 18.5286 8.4375 18.5263C7.65375 18.5241 6.99 18.77 6.44625 19.264C5.9025 19.758 5.62875 20.3542 5.625 21.0526C5.62125 21.751 5.895 22.3478 6.44625 22.8429C6.9975 23.3381 7.66125 23.5834 8.4375 23.5789ZM21.5625 23.5789C22.3438 23.5789 23.0081 23.3336 23.5556 22.8429C24.1031 22.3523 24.3762 21.7555 24.375 21.0526C24.3738 20.3498 24.1006 19.7535 23.5556 19.264C23.0106 18.7745 22.3463 18.5286 21.5625 18.5263C20.7787 18.5241 20.115 18.77 19.5712 19.264C19.0275 19.758 18.7537 20.3542 18.75 21.0526C18.7463 21.751 19.02 22.3478 19.5712 22.8429C20.1225 23.3381 20.7862 23.5834 21.5625 23.5789Z" fill="#007FFF"/>
</svg>
